<svg width="17" height="16" viewBox="0 0 17 16" fill="none" xmlns="http://www.w3.org/2000/svg">
<path d="M1.71484 6.92857C1.12311 6.92857 0.643415 7.40827 0.643415 8C0.643415 8.59173 1.12311 9.07143 1.71484 9.07143V8V6.92857ZM16.6153 8.75761C17.0337 8.3392 17.0337 7.6608 16.6153 7.24239L9.79679 0.423856C9.37837 0.00543729 8.69998 0.00543729 8.28156 0.423856C7.86314 0.842275 7.86314 1.52067 8.28156 1.93908L14.3425 8L8.28156 14.0609C7.86314 14.4793 7.86314 15.1577 8.28156 15.5761C8.69998 15.9946 9.37837 15.9946 9.79679 15.5761L16.6153 8.75761ZM1.71484 8V9.07143H15.8577V8V6.92857H1.71484V8Z" fill="#2A2247"/>
</svg>
